<svg width="24" height="32" viewBox="0 0 24 32" fill="none" xmlns="http://www.w3.org/2000/svg">
<path fill-rule="evenodd" clip-rule="evenodd" d="M23.9962 6.47681C23.9941 6.28456 23.9197 6.09619 23.7784 5.95481L18.0431 0.219437L18.0424 0.218938C17.907 0.083625 17.7199 0 17.5133 0H1.5803C0.710492 0 0.00292969 0.7075 0.00292969 1.57731V30.4226C0.00292969 31.2924 0.71043 31.9999 1.58024 31.9999H22.4205C23.2902 31.9999 23.9978 31.2924 23.9978 30.4226V6.48456C23.9979 6.48301 23.9974 6.48159 23.997 6.48017C23.9967 6.47908 23.9964 6.47798 23.9962 6.47681ZM18.2626 2.55819L21.4397 5.73531H18.3414C18.298 5.73531 18.2626 5.69987 18.2626 5.65644V2.55819ZM22.4206 30.5015C22.464 30.5015 22.4994 30.4661 22.4994 30.4227H22.4994V7.23387H18.3415C17.4717 7.23387 16.7641 6.52619 16.7641 5.65644V1.4985H1.5803C1.53687 1.4985 1.50149 1.53387 1.50149 1.57731V30.4227C1.50149 30.4661 1.53687 30.5015 1.5803 30.5015H22.4206Z" fill="black"/>
<path fill-rule="evenodd" clip-rule="evenodd" d="M18.6304 10.251H5.36937C4.95562 10.251 4.62012 10.5864 4.62012 11.0002C4.62012 11.414 4.95562 11.7495 5.36937 11.7495H18.6303C19.0441 11.7495 19.3796 11.414 19.3796 11.0002C19.3796 10.5864 19.0441 10.251 18.6304 10.251Z" fill="black"/>
<path fill-rule="evenodd" clip-rule="evenodd" d="M18.6304 14.772H5.36937C4.95562 14.772 4.62012 15.1075 4.62012 15.5212C4.62012 15.935 4.95562 16.2705 5.36937 16.2705H18.6303C19.0441 16.2705 19.3796 15.935 19.3796 15.5212C19.3796 15.1075 19.0441 14.772 18.6304 14.772Z" fill="black"/>
<path fill-rule="evenodd" clip-rule="evenodd" d="M18.6304 19.2932H5.36937C4.95562 19.2932 4.62012 19.6287 4.62012 20.0425C4.62012 20.4563 4.95562 20.7917 5.36937 20.7917H18.6303C19.0441 20.7917 19.3796 20.4563 19.3796 20.0425C19.3796 19.6288 19.0441 19.2932 18.6304 19.2932Z" fill="black"/>
<path fill-rule="evenodd" clip-rule="evenodd" d="M11.9999 23.8145H5.36937C4.95562 23.8145 4.62012 24.15 4.62012 24.5637C4.62012 24.9775 4.95562 25.313 5.36937 25.313H11.9999C12.4136 25.313 12.7491 24.9775 12.7491 24.5637C12.7491 24.1499 12.4136 23.8145 11.9999 23.8145Z" fill="black"/>
</svg>
