<svg width="512" height="512" viewBox="0 0 512 512" fill="none" xmlns="http://www.w3.org/2000/svg">
<path fill-rule="evenodd" clip-rule="evenodd" d="M506 256C506 394.071 394.071 506 256 506C117.929 506 6 394.071 6 256C6 117.929 117.929 6 256 6C394.071 6 506 117.929 506 256ZM219.731 157.358C216.511 132.019 228.349 108.946 256.614 108.946C283.628 108.946 294.687 136.299 292.467 157.372C276.055 261.314 271.114 289.725 271.114 289.725C270.643 296.387 264.555 301.475 255.672 301.475C247.716 301.475 241.643 296.387 241.172 289.725C241.172 289.725 235.099 255.917 219.731 157.358ZM256.128 353.755C270.172 353.755 281.864 364.961 281.864 378.417C281.864 391.402 270.172 403.064 256.143 403.064C242.114 403.064 230.422 391.402 230.422 378.417C230.422 364.961 242.114 353.755 256.128 353.755Z" fill="black"/>
</svg>
