<svg width="512" height="512" viewBox="0 0 512 512" fill="none" xmlns="http://www.w3.org/2000/svg">
<path fill-rule="evenodd" clip-rule="evenodd" d="M336.393 69.1808C336.393 90.9673 354.532 109.486 377.069 109.486H440.281V491.839C440.281 499.464 434.235 506 426.539 506H86.2915C78.5961 506 72 499.464 72 491.839V20.1612C72 12.5359 78.5961 6 86.2915 6H336.393V69.1808ZM163.246 265.804C175.888 265.804 184.683 263.625 190.729 258.179C205.021 246.741 205.021 214.606 180.835 208.07C173.367 206.22 155.591 206.333 143.667 206.41H143.667C141.55 206.423 139.618 206.436 137.961 206.436C129.166 206.436 125.318 209.704 125.318 218.418V293.582C125.318 309.922 145.107 309.922 145.107 293.582V265.804H163.246ZM267.684 302.841C285.273 300.118 296.267 287.59 299.565 270.706C305.062 246.196 297.916 214.606 272.631 208.07C264.342 205.908 249.474 206.149 237.646 206.34L237.644 206.34C234.57 206.389 231.701 206.436 229.207 206.436C220.962 206.436 217.114 209.704 217.114 218.418V289.769C217.114 299.573 219.313 303.93 229.756 303.93L267.684 302.841ZM377.069 221.686C380.367 221.686 382.566 221.142 384.215 219.508C388.062 216.24 388.062 206.436 377.069 206.436H330.347C322.101 206.436 318.254 209.704 318.254 218.418V293.582C318.254 297.394 319.353 300.662 321.002 302.841C325.4 307.743 338.042 307.743 338.042 293.582V261.447H371.022C383.115 261.447 383.115 246.741 371.022 246.741H338.042V221.686H377.069ZM145.66 221.141H158.852C172.044 221.141 180.289 223.864 180.289 235.847C180.289 251.785 163.864 251.448 150.179 251.168C148.431 251.132 146.728 251.097 145.11 251.097H145.66V221.141ZM250.099 222.774H236.907V288.678C238.197 288.678 239.621 288.691 241.131 288.705L241.136 288.705C249.28 288.782 259.927 288.881 265.49 287.044C284.179 280.508 283.08 244.56 276.484 233.667C270.437 223.863 261.642 222.774 250.099 222.774ZM423.246 85.5215H377.073C367.729 85.5215 360.033 78.4408 360.033 68.6369V22.8853L423.246 85.5215Z" fill="black"/>
</svg>
