<svg xmlns="http://www.w3.org/2000/svg" version="1.1" xmlns:xlink="http://www.w3.org/1999/xlink" xmlns:svgjs="http://svgjs.com/svgjs" x="0" y="0" viewBox="0 0 512.54 512.54" style="enable-background:new 0 0 512 512" xml:space="preserve"><g><path xmlns="http://www.w3.org/2000/svg" d="m494.466 108.663c-.032-.078-.064-.154-.098-.231-.022-.05-.041-.1-.064-.15-.045-.099-.101-.19-.148-.288-.07-.141-.138-.283-.215-.42-1.332-2.706-3.062-5.166-5.191-7.295l-92.258-92.259c-2.119-2.119-4.569-3.844-7.28-5.183-.158-.088-.32-.167-.483-.247-.087-.041-.169-.091-.257-.131-.044-.02-.089-.036-.132-.056-.078-.034-.156-.067-.235-.1-3.478-1.523-7.166-2.303-10.975-2.303h-222.25c-15.958 0-28.94 12.982-28.94 28.94v51.06h-79.42c-16.956 0-30.75 13.794-30.75 30.75v98.5c0 16.956 13.794 30.75 30.75 30.75h79.42v243.6c0 15.958 12.982 28.94 28.94 28.94h312.95c15.958 0 28.94-12.982 28.94-28.94v-363.96c0-3.807-.778-7.492-2.304-10.977zm-31.838-6.223h-66.088c-1.219 0-2.21-.991-2.21-2.21v-66.088zm5.202 390.1h-312.95c-4.93 0-8.94-4.011-8.94-8.94v-243.6h120.08c16.956 0 30.75-13.794 30.75-30.75v-98.5c0-16.956-13.794-30.75-30.75-30.75h-9.25c-5.523 0-10 4.478-10 10s4.477 10 10 10h9.25c5.928 0 10.75 4.822 10.75 10.75v98.5c0 5.928-4.822 10.75-10.75 10.75h-219.5c-5.928 0-10.75-4.822-10.75-10.75v-98.5c0-5.928 4.822-10.75 10.75-10.75h109.75c5.523 0 10-4.478 10-10s-4.477-10-10-10h-10.33v-51.06c0-4.93 4.01-8.94 8.94-8.94h219.45v80.23c0 12.247 9.963 22.21 22.21 22.21h80.23v361.16c0 4.929-4.01 8.94-8.94 8.94z" fill="currentColor" data-original="#000000" style=""/><path xmlns="http://www.w3.org/2000/svg" d="m412.77 310.413h-200.74c-5.523 0-10 4.478-10 10s4.477 10 10 10h200.74c5.523 0 10-4.478 10-10s-4.477-10-10-10z" fill="currentColor" data-original="#000000" style=""/><path xmlns="http://www.w3.org/2000/svg" d="m412.77 360.207h-200.74c-5.523 0-10 4.478-10 10s4.477 10 10 10h200.74c5.523 0 10-4.478 10-10s-4.477-10-10-10z" fill="currentColor" data-original="#000000" style=""/><path xmlns="http://www.w3.org/2000/svg" d="m412.77 410h-200.74c-5.523 0-10 4.478-10 10s4.477 10 10 10h200.74c5.523 0 10-4.478 10-10s-4.477-10-10-10z" fill="currentColor" data-original="#000000" style=""/><path xmlns="http://www.w3.org/2000/svg" d="m96.18 130.403h-16.492c-3.57 0-6.886 2.465-6.886 6.885v46.754c0 4.421 3.315 6.886 6.886 6.886h16.492c14.961 0 28.222-10.881 28.222-30.688-.001-15.556-10.201-29.837-28.222-29.837zm-2.296 47.774h-7.311v-35.022h7.906c10.03 0 15.131 6.885 15.131 17.086 0 10.54-5.015 17.936-15.726 17.936z" fill="currentColor" data-original="#000000" style=""/><path xmlns="http://www.w3.org/2000/svg" d="m159.419 129.043c-17.936 0-29.752 12.411-29.752 31.622 0 19.212 11.816 31.623 29.752 31.623 17.937 0 29.753-12.411 29.753-31.623 0-19.211-11.817-31.622-29.753-31.622zm0 50.494c-10.625 0-14.961-9.266-14.961-18.872 0-9.605 4.336-18.871 14.961-18.871 10.626 0 14.962 9.266 14.962 18.871 0 9.606-4.336 18.872-14.962 18.872z" fill="currentColor" data-original="#000000" style=""/><path xmlns="http://www.w3.org/2000/svg" d="m237.11 175.712c-3.57 0-4.931 2.805-13.517 2.805-9.436 0-14.366-8.245-14.366-17.852 0-9.351 4.421-18.361 15.557-18.361 5.355 0 8.756 2.891 11.985 2.891 3.57 0 5.951-3.23 5.951-6.546 0-7.226-9.946-9.605-18.276-9.605-18.191 0-30.008 13.261-30.008 31.622 0 17.342 10.711 31.623 29.752 31.623 7.566 0 19.042-2.636 19.042-10.201 0-1.786-.679-6.376-6.12-6.376z" fill="currentColor" data-original="#000000" style=""/><circle xmlns="http://www.w3.org/2000/svg" cx="206.537" cy="90" r="10.005" fill="currentColor" data-original="#000000" style=""/></g></svg>